<mxfile host="app.diagrams.net" agent="Mozilla/5.0 (Windows NT 10.0; Win64; x64) AppleWebKit/537.36 (KHTML, like Gecko) Chrome/131.0.0.0 Safari/537.36" version="25.0.3" pages="3">
  <diagram id="C5RBs43oDa-KdzZeNtuy" name="Page-1">
    <mxGraphModel dx="1434" dy="772" grid="1" gridSize="10" guides="1" tooltips="1" connect="1" arrows="1" fold="1" page="1" pageScale="1" pageWidth="827" pageHeight="1169" math="0" shadow="0">
      <root>
        <mxCell id="WIyWlLk6GJQsqaUBKTNV-0" />
        <mxCell id="WIyWlLk6GJQsqaUBKTNV-1" parent="WIyWlLk6GJQsqaUBKTNV-0" />
        <mxCell id="WIyWlLk6GJQsqaUBKTNV-2" value="" style="rounded=0;html=1;jettySize=auto;orthogonalLoop=1;fontSize=11;endArrow=block;endFill=0;endSize=8;strokeWidth=1;shadow=0;labelBackgroundColor=none;edgeStyle=orthogonalEdgeStyle;" parent="WIyWlLk6GJQsqaUBKTNV-1" source="WIyWlLk6GJQsqaUBKTNV-3" target="WIyWlLk6GJQsqaUBKTNV-6" edge="1">
          <mxGeometry relative="1" as="geometry" />
        </mxCell>
        <mxCell id="WIyWlLk6GJQsqaUBKTNV-3" value="Начало" style="rounded=1;whiteSpace=wrap;html=1;fontSize=12;glass=0;strokeWidth=1;shadow=0;" parent="WIyWlLk6GJQsqaUBKTNV-1" vertex="1">
          <mxGeometry x="160" y="80" width="120" height="40" as="geometry" />
        </mxCell>
        <mxCell id="WIyWlLk6GJQsqaUBKTNV-4" value="" style="rounded=0;html=1;jettySize=auto;orthogonalLoop=1;fontSize=11;endArrow=block;endFill=0;endSize=8;strokeWidth=1;shadow=0;labelBackgroundColor=none;edgeStyle=orthogonalEdgeStyle;" parent="WIyWlLk6GJQsqaUBKTNV-1" source="WIyWlLk6GJQsqaUBKTNV-6" target="WIyWlLk6GJQsqaUBKTNV-10" edge="1">
          <mxGeometry y="20" relative="1" as="geometry">
            <mxPoint as="offset" />
          </mxGeometry>
        </mxCell>
        <mxCell id="WIyWlLk6GJQsqaUBKTNV-6" value="Ввод числе А и В" style="rhombus;whiteSpace=wrap;html=1;shadow=0;fontFamily=Helvetica;fontSize=12;align=center;strokeWidth=1;spacing=6;spacingTop=-4;" parent="WIyWlLk6GJQsqaUBKTNV-1" vertex="1">
          <mxGeometry x="170" y="170" width="100" height="80" as="geometry" />
        </mxCell>
        <mxCell id="WIyWlLk6GJQsqaUBKTNV-8" value="" style="rounded=0;html=1;jettySize=auto;orthogonalLoop=1;fontSize=11;endArrow=block;endFill=0;endSize=8;strokeWidth=1;shadow=0;labelBackgroundColor=none;edgeStyle=orthogonalEdgeStyle;" parent="WIyWlLk6GJQsqaUBKTNV-1" source="WIyWlLk6GJQsqaUBKTNV-10" target="WIyWlLk6GJQsqaUBKTNV-11" edge="1">
          <mxGeometry x="0.3333" y="20" relative="1" as="geometry">
            <mxPoint as="offset" />
          </mxGeometry>
        </mxCell>
        <mxCell id="5xL84bahc_-fksMl0cmh-50" value="А = 0" style="edgeLabel;html=1;align=center;verticalAlign=middle;resizable=0;points=[];" vertex="1" connectable="0" parent="WIyWlLk6GJQsqaUBKTNV-8">
          <mxGeometry x="-0.1" relative="1" as="geometry">
            <mxPoint as="offset" />
          </mxGeometry>
        </mxCell>
        <mxCell id="WIyWlLk6GJQsqaUBKTNV-9" value="А&amp;nbsp;≠ 0, В&amp;nbsp;≠ 0" style="edgeStyle=orthogonalEdgeStyle;rounded=0;html=1;jettySize=auto;orthogonalLoop=1;fontSize=11;endArrow=block;endFill=0;endSize=8;strokeWidth=1;shadow=0;labelBackgroundColor=none;" parent="WIyWlLk6GJQsqaUBKTNV-1" source="WIyWlLk6GJQsqaUBKTNV-10" target="WIyWlLk6GJQsqaUBKTNV-12" edge="1">
          <mxGeometry y="10" relative="1" as="geometry">
            <mxPoint as="offset" />
          </mxGeometry>
        </mxCell>
        <mxCell id="5xL84bahc_-fksMl0cmh-1" style="edgeStyle=orthogonalEdgeStyle;rounded=0;orthogonalLoop=1;jettySize=auto;html=1;exitX=0;exitY=0.5;exitDx=0;exitDy=0;entryX=0.5;entryY=0;entryDx=0;entryDy=0;" edge="1" parent="WIyWlLk6GJQsqaUBKTNV-1" source="WIyWlLk6GJQsqaUBKTNV-10" target="5xL84bahc_-fksMl0cmh-0">
          <mxGeometry relative="1" as="geometry" />
        </mxCell>
        <mxCell id="5xL84bahc_-fksMl0cmh-49" value="В = 0" style="edgeLabel;html=1;align=center;verticalAlign=middle;resizable=0;points=[];" vertex="1" connectable="0" parent="5xL84bahc_-fksMl0cmh-1">
          <mxGeometry x="0.5684" y="1" relative="1" as="geometry">
            <mxPoint as="offset" />
          </mxGeometry>
        </mxCell>
        <mxCell id="WIyWlLk6GJQsqaUBKTNV-10" value="Проверка на ноль" style="rhombus;whiteSpace=wrap;html=1;shadow=0;fontFamily=Helvetica;fontSize=12;align=center;strokeWidth=1;spacing=6;spacingTop=-4;" parent="WIyWlLk6GJQsqaUBKTNV-1" vertex="1">
          <mxGeometry x="170" y="290" width="100" height="80" as="geometry" />
        </mxCell>
        <mxCell id="5xL84bahc_-fksMl0cmh-41" style="edgeStyle=orthogonalEdgeStyle;rounded=0;orthogonalLoop=1;jettySize=auto;html=1;exitX=0.5;exitY=1;exitDx=0;exitDy=0;entryX=0.5;entryY=0;entryDx=0;entryDy=0;" edge="1" parent="WIyWlLk6GJQsqaUBKTNV-1" source="WIyWlLk6GJQsqaUBKTNV-11" target="5xL84bahc_-fksMl0cmh-2">
          <mxGeometry relative="1" as="geometry" />
        </mxCell>
        <mxCell id="WIyWlLk6GJQsqaUBKTNV-11" value="Ответ В" style="rounded=1;whiteSpace=wrap;html=1;fontSize=12;glass=0;strokeWidth=1;shadow=0;" parent="WIyWlLk6GJQsqaUBKTNV-1" vertex="1">
          <mxGeometry x="160" y="430" width="120" height="40" as="geometry" />
        </mxCell>
        <mxCell id="5xL84bahc_-fksMl0cmh-14" style="edgeStyle=orthogonalEdgeStyle;rounded=0;orthogonalLoop=1;jettySize=auto;html=1;exitX=0.5;exitY=1;exitDx=0;exitDy=0;entryX=0.5;entryY=0;entryDx=0;entryDy=0;" edge="1" parent="WIyWlLk6GJQsqaUBKTNV-1" source="WIyWlLk6GJQsqaUBKTNV-12" target="5xL84bahc_-fksMl0cmh-12">
          <mxGeometry relative="1" as="geometry" />
        </mxCell>
        <mxCell id="WIyWlLk6GJQsqaUBKTNV-12" value="Извлечение данных" style="rounded=1;whiteSpace=wrap;html=1;fontSize=12;glass=0;strokeWidth=1;shadow=0;" parent="WIyWlLk6GJQsqaUBKTNV-1" vertex="1">
          <mxGeometry x="390" y="430" width="120" height="40" as="geometry" />
        </mxCell>
        <mxCell id="5xL84bahc_-fksMl0cmh-40" style="edgeStyle=orthogonalEdgeStyle;rounded=0;orthogonalLoop=1;jettySize=auto;html=1;exitX=0.5;exitY=1;exitDx=0;exitDy=0;entryX=0.25;entryY=0;entryDx=0;entryDy=0;" edge="1" parent="WIyWlLk6GJQsqaUBKTNV-1" source="5xL84bahc_-fksMl0cmh-0" target="5xL84bahc_-fksMl0cmh-2">
          <mxGeometry relative="1" as="geometry" />
        </mxCell>
        <mxCell id="5xL84bahc_-fksMl0cmh-0" value="Ответ А" style="rounded=1;whiteSpace=wrap;html=1;fontSize=12;glass=0;strokeWidth=1;shadow=0;" vertex="1" parent="WIyWlLk6GJQsqaUBKTNV-1">
          <mxGeometry x="20" y="430" width="120" height="40" as="geometry" />
        </mxCell>
        <mxCell id="5xL84bahc_-fksMl0cmh-2" value="Конец" style="rounded=1;whiteSpace=wrap;html=1;fontSize=12;glass=0;strokeWidth=1;shadow=0;" vertex="1" parent="WIyWlLk6GJQsqaUBKTNV-1">
          <mxGeometry x="90" y="1480" width="120" height="40" as="geometry" />
        </mxCell>
        <mxCell id="5xL84bahc_-fksMl0cmh-10" style="edgeStyle=orthogonalEdgeStyle;rounded=0;orthogonalLoop=1;jettySize=auto;html=1;exitX=0.5;exitY=1;exitDx=0;exitDy=0;entryX=0.5;entryY=0;entryDx=0;entryDy=0;" edge="1" parent="WIyWlLk6GJQsqaUBKTNV-1" source="5xL84bahc_-fksMl0cmh-12" target="5xL84bahc_-fksMl0cmh-4">
          <mxGeometry relative="1" as="geometry">
            <mxPoint x="450" y="640" as="sourcePoint" />
          </mxGeometry>
        </mxCell>
        <mxCell id="5xL84bahc_-fksMl0cmh-16" value="Разность 0" style="edgeLabel;html=1;align=center;verticalAlign=middle;resizable=0;points=[];" vertex="1" connectable="0" parent="5xL84bahc_-fksMl0cmh-10">
          <mxGeometry x="-0.1" y="1" relative="1" as="geometry">
            <mxPoint as="offset" />
          </mxGeometry>
        </mxCell>
        <mxCell id="5xL84bahc_-fksMl0cmh-18" style="edgeStyle=orthogonalEdgeStyle;rounded=0;orthogonalLoop=1;jettySize=auto;html=1;exitX=0.5;exitY=1;exitDx=0;exitDy=0;entryX=0.5;entryY=0;entryDx=0;entryDy=0;" edge="1" parent="WIyWlLk6GJQsqaUBKTNV-1" source="5xL84bahc_-fksMl0cmh-4" target="5xL84bahc_-fksMl0cmh-17">
          <mxGeometry relative="1" as="geometry" />
        </mxCell>
        <mxCell id="5xL84bahc_-fksMl0cmh-4" value="Сложение мантисс" style="rounded=1;whiteSpace=wrap;html=1;fontSize=12;glass=0;strokeWidth=1;shadow=0;" vertex="1" parent="WIyWlLk6GJQsqaUBKTNV-1">
          <mxGeometry x="390" y="770" width="120" height="40" as="geometry" />
        </mxCell>
        <mxCell id="5xL84bahc_-fksMl0cmh-11" style="edgeStyle=orthogonalEdgeStyle;rounded=0;orthogonalLoop=1;jettySize=auto;html=1;exitX=0.5;exitY=1;exitDx=0;exitDy=0;entryX=1;entryY=0.5;entryDx=0;entryDy=0;" edge="1" parent="WIyWlLk6GJQsqaUBKTNV-1" source="5xL84bahc_-fksMl0cmh-7" target="5xL84bahc_-fksMl0cmh-4">
          <mxGeometry relative="1" as="geometry" />
        </mxCell>
        <mxCell id="5xL84bahc_-fksMl0cmh-7" value="Сдвиг мантиссы" style="rounded=1;whiteSpace=wrap;html=1;fontSize=12;glass=0;strokeWidth=1;shadow=0;" vertex="1" parent="WIyWlLk6GJQsqaUBKTNV-1">
          <mxGeometry x="520" y="680" width="120" height="40" as="geometry" />
        </mxCell>
        <mxCell id="5xL84bahc_-fksMl0cmh-8" style="edgeStyle=orthogonalEdgeStyle;rounded=0;orthogonalLoop=1;jettySize=auto;html=1;exitX=1;exitY=0.5;exitDx=0;exitDy=0;entryX=0.567;entryY=0.05;entryDx=0;entryDy=0;entryPerimeter=0;" edge="1" parent="WIyWlLk6GJQsqaUBKTNV-1" source="5xL84bahc_-fksMl0cmh-12" target="5xL84bahc_-fksMl0cmh-7">
          <mxGeometry relative="1" as="geometry">
            <mxPoint x="510" y="620" as="sourcePoint" />
          </mxGeometry>
        </mxCell>
        <mxCell id="5xL84bahc_-fksMl0cmh-15" value="Разность больше 0" style="edgeLabel;html=1;align=center;verticalAlign=middle;resizable=0;points=[];" vertex="1" connectable="0" parent="5xL84bahc_-fksMl0cmh-8">
          <mxGeometry x="0.3739" y="1" relative="1" as="geometry">
            <mxPoint as="offset" />
          </mxGeometry>
        </mxCell>
        <mxCell id="5xL84bahc_-fksMl0cmh-12" value="Сравнение порядков, вычисление разности по модулю" style="rhombus;whiteSpace=wrap;html=1;shadow=0;fontFamily=Helvetica;fontSize=12;align=center;strokeWidth=1;spacing=6;spacingTop=-4;" vertex="1" parent="WIyWlLk6GJQsqaUBKTNV-1">
          <mxGeometry x="365" y="500" width="170" height="150" as="geometry" />
        </mxCell>
        <mxCell id="5xL84bahc_-fksMl0cmh-22" style="edgeStyle=orthogonalEdgeStyle;rounded=0;orthogonalLoop=1;jettySize=auto;html=1;exitX=0;exitY=0.5;exitDx=0;exitDy=0;entryX=0.5;entryY=0;entryDx=0;entryDy=0;" edge="1" parent="WIyWlLk6GJQsqaUBKTNV-1" source="5xL84bahc_-fksMl0cmh-17" target="5xL84bahc_-fksMl0cmh-20">
          <mxGeometry relative="1" as="geometry" />
        </mxCell>
        <mxCell id="5xL84bahc_-fksMl0cmh-46" value="Мантисса больше диапазона" style="edgeLabel;html=1;align=center;verticalAlign=middle;resizable=0;points=[];" vertex="1" connectable="0" parent="5xL84bahc_-fksMl0cmh-22">
          <mxGeometry x="0.1472" y="-3" relative="1" as="geometry">
            <mxPoint x="-21" y="13" as="offset" />
          </mxGeometry>
        </mxCell>
        <mxCell id="5xL84bahc_-fksMl0cmh-23" style="edgeStyle=orthogonalEdgeStyle;rounded=0;orthogonalLoop=1;jettySize=auto;html=1;exitX=1;exitY=0.5;exitDx=0;exitDy=0;entryX=0.5;entryY=0;entryDx=0;entryDy=0;" edge="1" parent="WIyWlLk6GJQsqaUBKTNV-1" source="5xL84bahc_-fksMl0cmh-17" target="5xL84bahc_-fksMl0cmh-21">
          <mxGeometry relative="1" as="geometry" />
        </mxCell>
        <mxCell id="5xL84bahc_-fksMl0cmh-45" value="Мантисса меньше диапазона" style="edgeLabel;html=1;align=center;verticalAlign=middle;resizable=0;points=[];" vertex="1" connectable="0" parent="5xL84bahc_-fksMl0cmh-23">
          <mxGeometry x="0.2865" y="-4" relative="1" as="geometry">
            <mxPoint x="44" as="offset" />
          </mxGeometry>
        </mxCell>
        <mxCell id="5xL84bahc_-fksMl0cmh-29" style="edgeStyle=orthogonalEdgeStyle;rounded=0;orthogonalLoop=1;jettySize=auto;html=1;exitX=0.5;exitY=1;exitDx=0;exitDy=0;entryX=0.5;entryY=0;entryDx=0;entryDy=0;" edge="1" parent="WIyWlLk6GJQsqaUBKTNV-1" source="5xL84bahc_-fksMl0cmh-17" target="5xL84bahc_-fksMl0cmh-26">
          <mxGeometry relative="1" as="geometry" />
        </mxCell>
        <mxCell id="5xL84bahc_-fksMl0cmh-17" value="Нормализация" style="rhombus;whiteSpace=wrap;html=1;shadow=0;fontFamily=Helvetica;fontSize=12;align=center;strokeWidth=1;spacing=6;spacingTop=-4;" vertex="1" parent="WIyWlLk6GJQsqaUBKTNV-1">
          <mxGeometry x="397.5" y="870" width="105" height="90" as="geometry" />
        </mxCell>
        <mxCell id="5xL84bahc_-fksMl0cmh-42" style="edgeStyle=orthogonalEdgeStyle;rounded=0;orthogonalLoop=1;jettySize=auto;html=1;exitX=0.5;exitY=1;exitDx=0;exitDy=0;entryX=0.75;entryY=0;entryDx=0;entryDy=0;" edge="1" parent="WIyWlLk6GJQsqaUBKTNV-1" source="5xL84bahc_-fksMl0cmh-19" target="5xL84bahc_-fksMl0cmh-2">
          <mxGeometry relative="1" as="geometry" />
        </mxCell>
        <mxCell id="5xL84bahc_-fksMl0cmh-19" value="Формирование результата" style="rounded=1;whiteSpace=wrap;html=1;fontSize=12;glass=0;strokeWidth=1;shadow=0;" vertex="1" parent="WIyWlLk6GJQsqaUBKTNV-1">
          <mxGeometry x="245" y="1350" width="120" height="40" as="geometry" />
        </mxCell>
        <mxCell id="5xL84bahc_-fksMl0cmh-24" style="edgeStyle=orthogonalEdgeStyle;rounded=0;orthogonalLoop=1;jettySize=auto;html=1;exitX=0.5;exitY=1;exitDx=0;exitDy=0;entryX=0.5;entryY=0;entryDx=0;entryDy=0;" edge="1" parent="WIyWlLk6GJQsqaUBKTNV-1" source="5xL84bahc_-fksMl0cmh-20" target="5xL84bahc_-fksMl0cmh-26">
          <mxGeometry relative="1" as="geometry">
            <mxPoint x="310" y="1170" as="targetPoint" />
          </mxGeometry>
        </mxCell>
        <mxCell id="5xL84bahc_-fksMl0cmh-20" value="Сдвиг вправо и увеличение порядка" style="rounded=1;whiteSpace=wrap;html=1;fontSize=12;glass=0;strokeWidth=1;shadow=0;" vertex="1" parent="WIyWlLk6GJQsqaUBKTNV-1">
          <mxGeometry x="294" y="970" width="120" height="40" as="geometry" />
        </mxCell>
        <mxCell id="5xL84bahc_-fksMl0cmh-30" style="edgeStyle=orthogonalEdgeStyle;rounded=0;orthogonalLoop=1;jettySize=auto;html=1;exitX=0.5;exitY=1;exitDx=0;exitDy=0;entryX=0.5;entryY=0;entryDx=0;entryDy=0;" edge="1" parent="WIyWlLk6GJQsqaUBKTNV-1" source="5xL84bahc_-fksMl0cmh-21" target="5xL84bahc_-fksMl0cmh-26">
          <mxGeometry relative="1" as="geometry" />
        </mxCell>
        <mxCell id="5xL84bahc_-fksMl0cmh-21" value="Сдвиг влево и уменьшение порядка" style="rounded=1;whiteSpace=wrap;html=1;fontSize=12;glass=0;strokeWidth=1;shadow=0;" vertex="1" parent="WIyWlLk6GJQsqaUBKTNV-1">
          <mxGeometry x="480" y="970" width="120" height="40" as="geometry" />
        </mxCell>
        <mxCell id="5xL84bahc_-fksMl0cmh-31" style="edgeStyle=orthogonalEdgeStyle;rounded=0;orthogonalLoop=1;jettySize=auto;html=1;exitX=1;exitY=0.5;exitDx=0;exitDy=0;entryX=0.5;entryY=0;entryDx=0;entryDy=0;" edge="1" parent="WIyWlLk6GJQsqaUBKTNV-1" source="5xL84bahc_-fksMl0cmh-26" target="5xL84bahc_-fksMl0cmh-28">
          <mxGeometry relative="1" as="geometry" />
        </mxCell>
        <mxCell id="5xL84bahc_-fksMl0cmh-47" value="порядок превышает допустимый диапазон" style="edgeLabel;html=1;align=center;verticalAlign=middle;resizable=0;points=[];" vertex="1" connectable="0" parent="5xL84bahc_-fksMl0cmh-31">
          <mxGeometry x="0.5333" y="2" relative="1" as="geometry">
            <mxPoint as="offset" />
          </mxGeometry>
        </mxCell>
        <mxCell id="5xL84bahc_-fksMl0cmh-32" style="edgeStyle=orthogonalEdgeStyle;rounded=0;orthogonalLoop=1;jettySize=auto;html=1;exitX=0.5;exitY=1;exitDx=0;exitDy=0;entryX=0.5;entryY=0;entryDx=0;entryDy=0;" edge="1" parent="WIyWlLk6GJQsqaUBKTNV-1" source="5xL84bahc_-fksMl0cmh-26" target="5xL84bahc_-fksMl0cmh-27">
          <mxGeometry relative="1" as="geometry" />
        </mxCell>
        <mxCell id="5xL84bahc_-fksMl0cmh-48" value="порядок слишком мал" style="edgeLabel;html=1;align=center;verticalAlign=middle;resizable=0;points=[];" vertex="1" connectable="0" parent="5xL84bahc_-fksMl0cmh-32">
          <mxGeometry x="-0.05" relative="1" as="geometry">
            <mxPoint as="offset" />
          </mxGeometry>
        </mxCell>
        <mxCell id="5xL84bahc_-fksMl0cmh-37" style="edgeStyle=orthogonalEdgeStyle;rounded=0;orthogonalLoop=1;jettySize=auto;html=1;exitX=0;exitY=0.5;exitDx=0;exitDy=0;entryX=0.5;entryY=0;entryDx=0;entryDy=0;" edge="1" parent="WIyWlLk6GJQsqaUBKTNV-1" source="5xL84bahc_-fksMl0cmh-26" target="5xL84bahc_-fksMl0cmh-19">
          <mxGeometry relative="1" as="geometry" />
        </mxCell>
        <mxCell id="5xL84bahc_-fksMl0cmh-26" value="Работа с исключениями" style="rhombus;whiteSpace=wrap;html=1;shadow=0;fontFamily=Helvetica;fontSize=12;align=center;strokeWidth=1;spacing=6;spacingTop=-4;" vertex="1" parent="WIyWlLk6GJQsqaUBKTNV-1">
          <mxGeometry x="390" y="1100" width="120" height="110" as="geometry" />
        </mxCell>
        <mxCell id="5xL84bahc_-fksMl0cmh-38" style="edgeStyle=orthogonalEdgeStyle;rounded=0;orthogonalLoop=1;jettySize=auto;html=1;exitX=0.5;exitY=1;exitDx=0;exitDy=0;entryX=0.5;entryY=0;entryDx=0;entryDy=0;" edge="1" parent="WIyWlLk6GJQsqaUBKTNV-1" source="5xL84bahc_-fksMl0cmh-27" target="5xL84bahc_-fksMl0cmh-36">
          <mxGeometry relative="1" as="geometry" />
        </mxCell>
        <mxCell id="5xL84bahc_-fksMl0cmh-27" value="Денормализация" style="rounded=1;whiteSpace=wrap;html=1;fontSize=12;glass=0;strokeWidth=1;shadow=0;" vertex="1" parent="WIyWlLk6GJQsqaUBKTNV-1">
          <mxGeometry x="390" y="1250" width="120" height="40" as="geometry" />
        </mxCell>
        <mxCell id="5xL84bahc_-fksMl0cmh-39" style="edgeStyle=orthogonalEdgeStyle;rounded=0;orthogonalLoop=1;jettySize=auto;html=1;exitX=0.5;exitY=1;exitDx=0;exitDy=0;entryX=0.5;entryY=0;entryDx=0;entryDy=0;" edge="1" parent="WIyWlLk6GJQsqaUBKTNV-1" source="5xL84bahc_-fksMl0cmh-28" target="5xL84bahc_-fksMl0cmh-36">
          <mxGeometry relative="1" as="geometry" />
        </mxCell>
        <mxCell id="5xL84bahc_-fksMl0cmh-28" value="Переполнение" style="rounded=1;whiteSpace=wrap;html=1;fontSize=12;glass=0;strokeWidth=1;shadow=0;" vertex="1" parent="WIyWlLk6GJQsqaUBKTNV-1">
          <mxGeometry x="535" y="1250" width="120" height="40" as="geometry" />
        </mxCell>
        <mxCell id="5xL84bahc_-fksMl0cmh-43" style="edgeStyle=orthogonalEdgeStyle;rounded=0;orthogonalLoop=1;jettySize=auto;html=1;exitX=0.5;exitY=1;exitDx=0;exitDy=0;entryX=1;entryY=0.5;entryDx=0;entryDy=0;" edge="1" parent="WIyWlLk6GJQsqaUBKTNV-1" source="5xL84bahc_-fksMl0cmh-36" target="5xL84bahc_-fksMl0cmh-2">
          <mxGeometry relative="1" as="geometry" />
        </mxCell>
        <mxCell id="5xL84bahc_-fksMl0cmh-36" value="Обработка исключений" style="rounded=1;whiteSpace=wrap;html=1;fontSize=12;glass=0;strokeWidth=1;shadow=0;" vertex="1" parent="WIyWlLk6GJQsqaUBKTNV-1">
          <mxGeometry x="460" y="1350" width="120" height="40" as="geometry" />
        </mxCell>
      </root>
    </mxGraphModel>
  </diagram>
  <diagram id="NygsZefb3VFDSTK3CDY7" name="Страница — 2">
    <mxGraphModel dx="1434" dy="772" grid="1" gridSize="10" guides="1" tooltips="1" connect="1" arrows="1" fold="1" page="1" pageScale="1" pageWidth="827" pageHeight="1169" math="0" shadow="0">
      <root>
        <mxCell id="0" />
        <mxCell id="1" parent="0" />
        <mxCell id="Cbon52xa0zLk3sk-OKLf-27" value="" style="rounded=0;whiteSpace=wrap;html=1;fillColor=#e1d5e7;strokeColor=#9673a6;" vertex="1" parent="1">
          <mxGeometry x="50" y="940" width="510" height="120" as="geometry" />
        </mxCell>
        <mxCell id="Cbon52xa0zLk3sk-OKLf-25" value="" style="rounded=0;whiteSpace=wrap;html=1;fillColor=#fff2cc;strokeColor=#d6b656;" vertex="1" parent="1">
          <mxGeometry x="50" y="600" width="510" height="280" as="geometry" />
        </mxCell>
        <mxCell id="Cbon52xa0zLk3sk-OKLf-24" value="" style="rounded=0;whiteSpace=wrap;html=1;fillColor=#ffe6cc;strokeColor=#d79b00;" vertex="1" parent="1">
          <mxGeometry x="50" y="438" width="510" height="120" as="geometry" />
        </mxCell>
        <mxCell id="Cbon52xa0zLk3sk-OKLf-23" value="" style="rounded=0;whiteSpace=wrap;html=1;fillColor=#d5e8d4;strokeColor=#82b366;" vertex="1" parent="1">
          <mxGeometry x="50" y="170" width="510" height="230" as="geometry" />
        </mxCell>
        <mxCell id="Cbon52xa0zLk3sk-OKLf-6" style="edgeStyle=orthogonalEdgeStyle;rounded=0;orthogonalLoop=1;jettySize=auto;html=1;exitX=0.5;exitY=1;exitDx=0;exitDy=0;entryX=0.25;entryY=0;entryDx=0;entryDy=0;" edge="1" parent="1" source="Cbon52xa0zLk3sk-OKLf-1" target="Cbon52xa0zLk3sk-OKLf-4">
          <mxGeometry relative="1" as="geometry" />
        </mxCell>
        <mxCell id="Cbon52xa0zLk3sk-OKLf-14" style="edgeStyle=orthogonalEdgeStyle;rounded=0;orthogonalLoop=1;jettySize=auto;html=1;exitX=0;exitY=0.5;exitDx=0;exitDy=0;entryX=0;entryY=0.5;entryDx=0;entryDy=0;" edge="1" parent="1" source="Cbon52xa0zLk3sk-OKLf-1" target="Cbon52xa0zLk3sk-OKLf-5">
          <mxGeometry relative="1" as="geometry" />
        </mxCell>
        <mxCell id="Cbon52xa0zLk3sk-OKLf-1" value="Input A" style="rounded=0;whiteSpace=wrap;html=1;" vertex="1" parent="1">
          <mxGeometry x="150" y="190" width="120" height="60" as="geometry" />
        </mxCell>
        <mxCell id="Cbon52xa0zLk3sk-OKLf-7" style="edgeStyle=orthogonalEdgeStyle;rounded=0;orthogonalLoop=1;jettySize=auto;html=1;exitX=0.5;exitY=1;exitDx=0;exitDy=0;entryX=0.75;entryY=0;entryDx=0;entryDy=0;" edge="1" parent="1" source="Cbon52xa0zLk3sk-OKLf-3" target="Cbon52xa0zLk3sk-OKLf-4">
          <mxGeometry relative="1" as="geometry" />
        </mxCell>
        <mxCell id="Cbon52xa0zLk3sk-OKLf-15" style="edgeStyle=orthogonalEdgeStyle;rounded=0;orthogonalLoop=1;jettySize=auto;html=1;exitX=1;exitY=0.5;exitDx=0;exitDy=0;entryX=1;entryY=0.5;entryDx=0;entryDy=0;" edge="1" parent="1" source="Cbon52xa0zLk3sk-OKLf-3" target="Cbon52xa0zLk3sk-OKLf-5">
          <mxGeometry relative="1" as="geometry" />
        </mxCell>
        <mxCell id="Cbon52xa0zLk3sk-OKLf-3" value="Input B" style="rounded=0;whiteSpace=wrap;html=1;" vertex="1" parent="1">
          <mxGeometry x="340" y="190" width="120" height="60" as="geometry" />
        </mxCell>
        <mxCell id="Cbon52xa0zLk3sk-OKLf-10" style="edgeStyle=orthogonalEdgeStyle;rounded=0;orthogonalLoop=1;jettySize=auto;html=1;exitX=0.5;exitY=1;exitDx=0;exitDy=0;entryX=0.5;entryY=0;entryDx=0;entryDy=0;" edge="1" parent="1" source="Cbon52xa0zLk3sk-OKLf-4" target="Cbon52xa0zLk3sk-OKLf-5">
          <mxGeometry relative="1" as="geometry" />
        </mxCell>
        <mxCell id="Cbon52xa0zLk3sk-OKLf-4" value="Comparator" style="rounded=0;whiteSpace=wrap;html=1;" vertex="1" parent="1">
          <mxGeometry x="240" y="320" width="120" height="60" as="geometry" />
        </mxCell>
        <mxCell id="Cbon52xa0zLk3sk-OKLf-18" style="edgeStyle=orthogonalEdgeStyle;rounded=0;orthogonalLoop=1;jettySize=auto;html=1;exitX=0.5;exitY=1;exitDx=0;exitDy=0;entryX=0.5;entryY=0;entryDx=0;entryDy=0;" edge="1" parent="1" source="Cbon52xa0zLk3sk-OKLf-5" target="Cbon52xa0zLk3sk-OKLf-16">
          <mxGeometry relative="1" as="geometry" />
        </mxCell>
        <mxCell id="Cbon52xa0zLk3sk-OKLf-5" value="Shifter" style="rounded=0;whiteSpace=wrap;html=1;" vertex="1" parent="1">
          <mxGeometry x="240" y="470" width="120" height="60" as="geometry" />
        </mxCell>
        <mxCell id="Cbon52xa0zLk3sk-OKLf-8" value="13 bit" style="text;html=1;align=center;verticalAlign=middle;resizable=0;points=[];autosize=1;strokeColor=none;fillColor=none;" vertex="1" parent="1">
          <mxGeometry x="275" y="270" width="50" height="30" as="geometry" />
        </mxCell>
        <mxCell id="Cbon52xa0zLk3sk-OKLf-11" value="Contorl" style="text;html=1;align=center;verticalAlign=middle;resizable=0;points=[];autosize=1;strokeColor=none;fillColor=none;" vertex="1" parent="1">
          <mxGeometry x="300" y="408" width="60" height="30" as="geometry" />
        </mxCell>
        <mxCell id="Cbon52xa0zLk3sk-OKLf-20" style="edgeStyle=orthogonalEdgeStyle;rounded=0;orthogonalLoop=1;jettySize=auto;html=1;exitX=0.5;exitY=1;exitDx=0;exitDy=0;entryX=0.5;entryY=0;entryDx=0;entryDy=0;" edge="1" parent="1" source="Cbon52xa0zLk3sk-OKLf-16" target="Cbon52xa0zLk3sk-OKLf-17">
          <mxGeometry relative="1" as="geometry" />
        </mxCell>
        <mxCell id="Cbon52xa0zLk3sk-OKLf-16" value="Adder" style="rounded=0;whiteSpace=wrap;html=1;" vertex="1" parent="1">
          <mxGeometry x="240" y="630" width="120" height="60" as="geometry" />
        </mxCell>
        <mxCell id="Cbon52xa0zLk3sk-OKLf-28" style="edgeStyle=orthogonalEdgeStyle;rounded=0;orthogonalLoop=1;jettySize=auto;html=1;exitX=0.5;exitY=1;exitDx=0;exitDy=0;entryX=0.5;entryY=0;entryDx=0;entryDy=0;" edge="1" parent="1" source="Cbon52xa0zLk3sk-OKLf-17" target="Cbon52xa0zLk3sk-OKLf-21">
          <mxGeometry relative="1" as="geometry" />
        </mxCell>
        <mxCell id="Cbon52xa0zLk3sk-OKLf-17" value="Normalization" style="rounded=0;whiteSpace=wrap;html=1;" vertex="1" parent="1">
          <mxGeometry x="240" y="810" width="120" height="60" as="geometry" />
        </mxCell>
        <mxCell id="Cbon52xa0zLk3sk-OKLf-19" value="Raw Sum" style="text;html=1;align=center;verticalAlign=middle;resizable=0;points=[];autosize=1;strokeColor=none;fillColor=none;" vertex="1" parent="1">
          <mxGeometry x="300" y="720" width="80" height="30" as="geometry" />
        </mxCell>
        <mxCell id="Cbon52xa0zLk3sk-OKLf-21" value="Result" style="rounded=0;whiteSpace=wrap;html=1;" vertex="1" parent="1">
          <mxGeometry x="240" y="990" width="120" height="60" as="geometry" />
        </mxCell>
        <mxCell id="Cbon52xa0zLk3sk-OKLf-29" value="Normalized" style="text;html=1;align=center;verticalAlign=middle;resizable=0;points=[];autosize=1;strokeColor=none;fillColor=none;" vertex="1" parent="1">
          <mxGeometry x="300" y="900" width="80" height="30" as="geometry" />
        </mxCell>
        <mxCell id="Cbon52xa0zLk3sk-OKLf-30" value="Aligned Matniss" style="text;html=1;align=center;verticalAlign=middle;resizable=0;points=[];autosize=1;strokeColor=none;fillColor=none;" vertex="1" parent="1">
          <mxGeometry x="300" y="570" width="110" height="30" as="geometry" />
        </mxCell>
        <mxCell id="Cbon52xa0zLk3sk-OKLf-31" value="Ввод данных" style="text;html=1;align=center;verticalAlign=middle;resizable=0;points=[];autosize=1;strokeColor=none;fillColor=none;" vertex="1" parent="1">
          <mxGeometry x="50" y="170" width="100" height="30" as="geometry" />
        </mxCell>
        <mxCell id="Cbon52xa0zLk3sk-OKLf-32" value="Выравнивание" style="text;html=1;align=center;verticalAlign=middle;resizable=0;points=[];autosize=1;strokeColor=none;fillColor=none;" vertex="1" parent="1">
          <mxGeometry x="50" y="528" width="110" height="30" as="geometry" />
        </mxCell>
        <mxCell id="Cbon52xa0zLk3sk-OKLf-33" value="Сложение и нормализация" style="text;html=1;align=center;verticalAlign=middle;resizable=0;points=[];autosize=1;strokeColor=none;fillColor=none;" vertex="1" parent="1">
          <mxGeometry x="50" y="600" width="170" height="30" as="geometry" />
        </mxCell>
        <mxCell id="Cbon52xa0zLk3sk-OKLf-34" value="Вывод" style="text;html=1;align=center;verticalAlign=middle;resizable=0;points=[];autosize=1;strokeColor=none;fillColor=none;" vertex="1" parent="1">
          <mxGeometry x="50" y="940" width="60" height="30" as="geometry" />
        </mxCell>
      </root>
    </mxGraphModel>
  </diagram>
  <diagram id="wfRWuX6x7bz5RpSEzF_8" name="Страница — 3">
    <mxGraphModel dx="1434" dy="1941" grid="1" gridSize="10" guides="1" tooltips="1" connect="1" arrows="1" fold="1" page="1" pageScale="1" pageWidth="827" pageHeight="1169" math="0" shadow="0">
      <root>
        <mxCell id="0" />
        <mxCell id="1" parent="0" />
        <mxCell id="rYw_oVRkXLZ7b9wdJFPz-59" value="" style="rounded=0;whiteSpace=wrap;html=1;fillColor=#f8cecc;strokeColor=#b85450;" vertex="1" parent="1">
          <mxGeometry x="20" y="50" width="520" height="190" as="geometry" />
        </mxCell>
        <mxCell id="OqgsMl20V7zw7rSx06wH-1" value="" style="rounded=0;whiteSpace=wrap;html=1;fillColor=#d5e8d4;strokeColor=#82b366;movable=1;resizable=1;rotatable=1;deletable=1;editable=1;locked=0;connectable=1;" vertex="1" parent="1">
          <mxGeometry x="20" y="-1150" width="520" height="420" as="geometry" />
        </mxCell>
        <mxCell id="rYw_oVRkXLZ7b9wdJFPz-54" style="edgeStyle=orthogonalEdgeStyle;rounded=0;orthogonalLoop=1;jettySize=auto;html=1;exitX=0.25;exitY=1;exitDx=0;exitDy=0;entryX=0.75;entryY=0;entryDx=0;entryDy=0;" edge="1" parent="1" source="OqgsMl20V7zw7rSx06wH-3" target="rYw_oVRkXLZ7b9wdJFPz-17">
          <mxGeometry relative="1" as="geometry" />
        </mxCell>
        <mxCell id="rYw_oVRkXLZ7b9wdJFPz-55" style="edgeStyle=orthogonalEdgeStyle;rounded=0;orthogonalLoop=1;jettySize=auto;html=1;exitX=0.5;exitY=1;exitDx=0;exitDy=0;entryX=0.5;entryY=0;entryDx=0;entryDy=0;" edge="1" parent="1" source="OqgsMl20V7zw7rSx06wH-3" target="rYw_oVRkXLZ7b9wdJFPz-18">
          <mxGeometry relative="1" as="geometry" />
        </mxCell>
        <mxCell id="OqgsMl20V7zw7rSx06wH-3" value="Регистр &lt;span class=&quot;katex&quot;&gt;&lt;span class=&quot;katex-mathml&quot;&gt;&lt;math xmlns=&quot;http://www.w3.org/1998/Math/MathML&quot;&gt;&lt;mrow&gt;&lt;mi&gt;&lt;br&gt;&lt;/mi&gt;&lt;/mrow&gt;A&lt;/math&gt;&lt;/span&gt;&lt;/span&gt;А для делимого." style="rounded=0;whiteSpace=wrap;html=1;movable=1;resizable=1;rotatable=1;deletable=1;editable=1;locked=0;connectable=1;" vertex="1" parent="1">
          <mxGeometry x="160" y="-1070" width="120" height="60" as="geometry" />
        </mxCell>
        <mxCell id="rYw_oVRkXLZ7b9wdJFPz-31" style="edgeStyle=orthogonalEdgeStyle;rounded=0;orthogonalLoop=1;jettySize=auto;html=1;entryX=1;entryY=0.5;entryDx=0;entryDy=0;movable=1;resizable=1;rotatable=1;deletable=1;editable=1;locked=0;connectable=1;exitX=0.5;exitY=1;exitDx=0;exitDy=0;" edge="1" parent="1" source="OqgsMl20V7zw7rSx06wH-5" target="rYw_oVRkXLZ7b9wdJFPz-18">
          <mxGeometry relative="1" as="geometry" />
        </mxCell>
        <mxCell id="rYw_oVRkXLZ7b9wdJFPz-34" style="edgeStyle=orthogonalEdgeStyle;rounded=0;orthogonalLoop=1;jettySize=auto;html=1;exitX=0.75;exitY=1;exitDx=0;exitDy=0;" edge="1" parent="1" source="OqgsMl20V7zw7rSx06wH-5" target="OqgsMl20V7zw7rSx06wH-9">
          <mxGeometry relative="1" as="geometry" />
        </mxCell>
        <mxCell id="rYw_oVRkXLZ7b9wdJFPz-53" style="edgeStyle=orthogonalEdgeStyle;rounded=0;orthogonalLoop=1;jettySize=auto;html=1;exitX=0;exitY=0.5;exitDx=0;exitDy=0;entryX=0.5;entryY=0;entryDx=0;entryDy=0;" edge="1" parent="1" source="OqgsMl20V7zw7rSx06wH-5" target="rYw_oVRkXLZ7b9wdJFPz-17">
          <mxGeometry relative="1" as="geometry" />
        </mxCell>
        <mxCell id="OqgsMl20V7zw7rSx06wH-5" value="Регистр В&lt;span class=&quot;katex&quot;&gt;&lt;span class=&quot;katex-mathml&quot;&gt;&lt;math xmlns=&quot;http://www.w3.org/1998/Math/MathML&quot;&gt;&lt;mrow&gt;&lt;mi&gt;&lt;span style=&quot;background-color: initial; font-family: Helvetica;&quot;&gt;&amp;nbsp;для делителя.&lt;/span&gt;&lt;/mi&gt;&lt;/mrow&gt;&lt;/math&gt;&lt;/span&gt;&lt;/span&gt;" style="rounded=0;whiteSpace=wrap;html=1;movable=1;resizable=1;rotatable=1;deletable=1;editable=1;locked=0;connectable=1;" vertex="1" parent="1">
          <mxGeometry x="310" y="-1130" width="120" height="60" as="geometry" />
        </mxCell>
        <mxCell id="OqgsMl20V7zw7rSx06wH-9" value="Блок проверки делителя" style="rounded=0;whiteSpace=wrap;html=1;movable=1;resizable=1;rotatable=1;deletable=1;editable=1;locked=0;connectable=1;" vertex="1" parent="1">
          <mxGeometry x="400" y="-950" width="120" height="60" as="geometry" />
        </mxCell>
        <mxCell id="rYw_oVRkXLZ7b9wdJFPz-1" value="" style="rounded=0;whiteSpace=wrap;html=1;fillColor=#e1d5e7;strokeColor=#9673a6;" vertex="1" parent="1">
          <mxGeometry x="20" y="-90" width="520" height="130" as="geometry" />
        </mxCell>
        <mxCell id="rYw_oVRkXLZ7b9wdJFPz-2" value="" style="rounded=0;whiteSpace=wrap;html=1;fillColor=#fff2cc;strokeColor=#d6b656;" vertex="1" parent="1">
          <mxGeometry x="20" y="-380" width="520" height="280" as="geometry" />
        </mxCell>
        <mxCell id="rYw_oVRkXLZ7b9wdJFPz-3" value="" style="rounded=0;whiteSpace=wrap;html=1;fillColor=#ffe6cc;strokeColor=#d79b00;" vertex="1" parent="1">
          <mxGeometry x="20" y="-720" width="520" height="330" as="geometry" />
        </mxCell>
        <mxCell id="rYw_oVRkXLZ7b9wdJFPz-41" style="edgeStyle=orthogonalEdgeStyle;rounded=0;orthogonalLoop=1;jettySize=auto;html=1;exitX=0.5;exitY=1;exitDx=0;exitDy=0;entryX=0.5;entryY=0;entryDx=0;entryDy=0;" edge="1" parent="1" source="rYw_oVRkXLZ7b9wdJFPz-7" target="rYw_oVRkXLZ7b9wdJFPz-22">
          <mxGeometry relative="1" as="geometry" />
        </mxCell>
        <mxCell id="rYw_oVRkXLZ7b9wdJFPz-42" style="edgeStyle=orthogonalEdgeStyle;rounded=0;orthogonalLoop=1;jettySize=auto;html=1;exitX=1;exitY=0.5;exitDx=0;exitDy=0;entryX=1;entryY=0.25;entryDx=0;entryDy=0;" edge="1" parent="1" source="rYw_oVRkXLZ7b9wdJFPz-7" target="rYw_oVRkXLZ7b9wdJFPz-19">
          <mxGeometry relative="1" as="geometry" />
        </mxCell>
        <mxCell id="rYw_oVRkXLZ7b9wdJFPz-7" value="Блок умножения остатка на 2" style="rounded=0;whiteSpace=wrap;html=1;" vertex="1" parent="1">
          <mxGeometry x="320" y="-350" width="120" height="60" as="geometry" />
        </mxCell>
        <mxCell id="rYw_oVRkXLZ7b9wdJFPz-15" value="Этап 1: Инициализация" style="text;html=1;align=center;verticalAlign=middle;resizable=0;points=[];autosize=1;strokeColor=none;fillColor=none;" vertex="1" parent="1">
          <mxGeometry x="390" y="-760" width="160" height="30" as="geometry" />
        </mxCell>
        <mxCell id="rYw_oVRkXLZ7b9wdJFPz-51" style="edgeStyle=orthogonalEdgeStyle;rounded=0;orthogonalLoop=1;jettySize=auto;html=1;exitX=0.5;exitY=1;exitDx=0;exitDy=0;entryX=0.5;entryY=0;entryDx=0;entryDy=0;" edge="1" parent="1" source="rYw_oVRkXLZ7b9wdJFPz-17" target="rYw_oVRkXLZ7b9wdJFPz-23">
          <mxGeometry relative="1" as="geometry" />
        </mxCell>
        <mxCell id="rYw_oVRkXLZ7b9wdJFPz-17" value="Блок определения знака" style="rounded=0;whiteSpace=wrap;html=1;movable=1;resizable=1;rotatable=1;deletable=1;editable=1;locked=0;connectable=1;" vertex="1" parent="1">
          <mxGeometry x="30" y="-930" width="120" height="60" as="geometry" />
        </mxCell>
        <mxCell id="rYw_oVRkXLZ7b9wdJFPz-35" style="edgeStyle=orthogonalEdgeStyle;rounded=0;orthogonalLoop=1;jettySize=auto;html=1;exitX=0.5;exitY=1;exitDx=0;exitDy=0;entryX=0.5;entryY=0;entryDx=0;entryDy=0;" edge="1" parent="1" source="rYw_oVRkXLZ7b9wdJFPz-18" target="rYw_oVRkXLZ7b9wdJFPz-19">
          <mxGeometry relative="1" as="geometry" />
        </mxCell>
        <mxCell id="rYw_oVRkXLZ7b9wdJFPz-18" value="Блок абсолютного значения" style="rounded=0;whiteSpace=wrap;html=1;movable=1;resizable=1;rotatable=1;deletable=1;editable=1;locked=0;connectable=1;" vertex="1" parent="1">
          <mxGeometry x="160" y="-840" width="120" height="60" as="geometry" />
        </mxCell>
        <mxCell id="rYw_oVRkXLZ7b9wdJFPz-37" style="edgeStyle=orthogonalEdgeStyle;rounded=0;orthogonalLoop=1;jettySize=auto;html=1;exitX=0.5;exitY=1;exitDx=0;exitDy=0;entryX=0.5;entryY=0;entryDx=0;entryDy=0;" edge="1" parent="1" source="rYw_oVRkXLZ7b9wdJFPz-19" target="rYw_oVRkXLZ7b9wdJFPz-21">
          <mxGeometry relative="1" as="geometry" />
        </mxCell>
        <mxCell id="rYw_oVRkXLZ7b9wdJFPz-40" style="edgeStyle=orthogonalEdgeStyle;rounded=0;orthogonalLoop=1;jettySize=auto;html=1;exitX=1;exitY=0.75;exitDx=0;exitDy=0;entryX=0.5;entryY=0;entryDx=0;entryDy=0;" edge="1" parent="1" source="rYw_oVRkXLZ7b9wdJFPz-19" target="rYw_oVRkXLZ7b9wdJFPz-7">
          <mxGeometry relative="1" as="geometry" />
        </mxCell>
        <mxCell id="rYw_oVRkXLZ7b9wdJFPz-19" value="Регистр остатка" style="rounded=0;whiteSpace=wrap;html=1;" vertex="1" parent="1">
          <mxGeometry x="160" y="-690" width="120" height="60" as="geometry" />
        </mxCell>
        <mxCell id="rYw_oVRkXLZ7b9wdJFPz-45" style="edgeStyle=orthogonalEdgeStyle;rounded=0;orthogonalLoop=1;jettySize=auto;html=1;exitX=0.5;exitY=1;exitDx=0;exitDy=0;entryX=0.25;entryY=0;entryDx=0;entryDy=0;" edge="1" parent="1" source="rYw_oVRkXLZ7b9wdJFPz-20" target="rYw_oVRkXLZ7b9wdJFPz-24">
          <mxGeometry relative="1" as="geometry" />
        </mxCell>
        <mxCell id="rYw_oVRkXLZ7b9wdJFPz-20" value="Регистр частного" style="rounded=0;whiteSpace=wrap;html=1;" vertex="1" parent="1">
          <mxGeometry x="160" y="-465" width="120" height="60" as="geometry" />
        </mxCell>
        <mxCell id="rYw_oVRkXLZ7b9wdJFPz-38" style="edgeStyle=orthogonalEdgeStyle;rounded=0;orthogonalLoop=1;jettySize=auto;html=1;exitX=0.5;exitY=1;exitDx=0;exitDy=0;entryX=0.5;entryY=0;entryDx=0;entryDy=0;" edge="1" parent="1" source="rYw_oVRkXLZ7b9wdJFPz-21" target="rYw_oVRkXLZ7b9wdJFPz-20">
          <mxGeometry relative="1" as="geometry" />
        </mxCell>
        <mxCell id="rYw_oVRkXLZ7b9wdJFPz-39" style="edgeStyle=orthogonalEdgeStyle;rounded=0;orthogonalLoop=1;jettySize=auto;html=1;exitX=0;exitY=0.5;exitDx=0;exitDy=0;entryX=0;entryY=0.75;entryDx=0;entryDy=0;" edge="1" parent="1" source="rYw_oVRkXLZ7b9wdJFPz-21" target="rYw_oVRkXLZ7b9wdJFPz-19">
          <mxGeometry relative="1" as="geometry" />
        </mxCell>
        <mxCell id="rYw_oVRkXLZ7b9wdJFPz-21" value="Блок сдвига и вычитания" style="rounded=0;whiteSpace=wrap;html=1;" vertex="1" parent="1">
          <mxGeometry x="160" y="-570" width="120" height="60" as="geometry" />
        </mxCell>
        <mxCell id="rYw_oVRkXLZ7b9wdJFPz-43" style="edgeStyle=orthogonalEdgeStyle;rounded=0;orthogonalLoop=1;jettySize=auto;html=1;exitX=0.5;exitY=1;exitDx=0;exitDy=0;entryX=0.5;entryY=0;entryDx=0;entryDy=0;" edge="1" parent="1" source="rYw_oVRkXLZ7b9wdJFPz-22" target="rYw_oVRkXLZ7b9wdJFPz-24">
          <mxGeometry relative="1" as="geometry">
            <Array as="points">
              <mxPoint x="380" y="-170" />
              <mxPoint x="289" y="-170" />
            </Array>
          </mxGeometry>
        </mxCell>
        <mxCell id="rYw_oVRkXLZ7b9wdJFPz-22" value="Регистр дробной части" style="rounded=0;whiteSpace=wrap;html=1;" vertex="1" parent="1">
          <mxGeometry x="320" y="-250" width="120" height="60" as="geometry" />
        </mxCell>
        <mxCell id="rYw_oVRkXLZ7b9wdJFPz-50" style="edgeStyle=orthogonalEdgeStyle;rounded=0;orthogonalLoop=1;jettySize=auto;html=1;entryX=0;entryY=0.5;entryDx=0;entryDy=0;exitX=0.5;exitY=1;exitDx=0;exitDy=0;" edge="1" parent="1" source="rYw_oVRkXLZ7b9wdJFPz-23" target="rYw_oVRkXLZ7b9wdJFPz-24">
          <mxGeometry relative="1" as="geometry">
            <mxPoint x="-10" y="-760" as="sourcePoint" />
          </mxGeometry>
        </mxCell>
        <mxCell id="rYw_oVRkXLZ7b9wdJFPz-23" value="Регистр знака" style="rounded=0;whiteSpace=wrap;html=1;" vertex="1" parent="1">
          <mxGeometry x="30" y="-840" width="120" height="60" as="geometry" />
        </mxCell>
        <mxCell id="rYw_oVRkXLZ7b9wdJFPz-44" style="edgeStyle=orthogonalEdgeStyle;rounded=0;orthogonalLoop=1;jettySize=auto;html=1;exitX=0.5;exitY=1;exitDx=0;exitDy=0;entryX=0.5;entryY=0;entryDx=0;entryDy=0;" edge="1" parent="1" source="rYw_oVRkXLZ7b9wdJFPz-24" target="rYw_oVRkXLZ7b9wdJFPz-26">
          <mxGeometry relative="1" as="geometry" />
        </mxCell>
        <mxCell id="rYw_oVRkXLZ7b9wdJFPz-24" value="Выходной регистр Q" style="rounded=0;whiteSpace=wrap;html=1;" vertex="1" parent="1">
          <mxGeometry x="228.5" y="-30" width="120" height="60" as="geometry" />
        </mxCell>
        <mxCell id="rYw_oVRkXLZ7b9wdJFPz-25" value="Флаг готовности" style="rounded=0;whiteSpace=wrap;html=1;" vertex="1" parent="1">
          <mxGeometry x="228.5" y="160" width="120" height="60" as="geometry" />
        </mxCell>
        <mxCell id="rYw_oVRkXLZ7b9wdJFPz-47" style="edgeStyle=orthogonalEdgeStyle;rounded=0;orthogonalLoop=1;jettySize=auto;html=1;exitX=0.5;exitY=1;exitDx=0;exitDy=0;entryX=0.5;entryY=0;entryDx=0;entryDy=0;" edge="1" parent="1" source="rYw_oVRkXLZ7b9wdJFPz-26" target="rYw_oVRkXLZ7b9wdJFPz-25">
          <mxGeometry relative="1" as="geometry" />
        </mxCell>
        <mxCell id="rYw_oVRkXLZ7b9wdJFPz-26" value="Вывод результата" style="rounded=0;whiteSpace=wrap;html=1;" vertex="1" parent="1">
          <mxGeometry x="228.5" y="70" width="120" height="60" as="geometry" />
        </mxCell>
        <mxCell id="rYw_oVRkXLZ7b9wdJFPz-56" value="Этап 2: Вычисление целой части" style="text;whiteSpace=wrap;html=1;" vertex="1" parent="1">
          <mxGeometry x="348.5" y="-720" width="190" height="20" as="geometry" />
        </mxCell>
        <mxCell id="rYw_oVRkXLZ7b9wdJFPz-57" value="Этап 3: Вычисление дробной части" style="text;whiteSpace=wrap;html=1;" vertex="1" parent="1">
          <mxGeometry x="337" y="-130" width="201.5" height="30" as="geometry" />
        </mxCell>
        <mxCell id="rYw_oVRkXLZ7b9wdJFPz-58" value="Этап 4: Формирование результата" style="text;whiteSpace=wrap;html=1;" vertex="1" parent="1">
          <mxGeometry x="337" y="-90" width="220" height="40" as="geometry" />
        </mxCell>
        <mxCell id="rYw_oVRkXLZ7b9wdJFPz-60" value="Этап 5: Завершение" style="text;whiteSpace=wrap;html=1;" vertex="1" parent="1">
          <mxGeometry x="420" y="50" width="150" height="40" as="geometry" />
        </mxCell>
      </root>
    </mxGraphModel>
  </diagram>
</mxfile>
